HIERARCHY
ROOT Hips
{
	OFFSET	0.00	0.00	0.00
	CHANNELS 6 Xposition Yposition Zposition Zrotation Xrotation Yrotation
	JOINT Spine
	{
		OFFSET	 0.00	0.01	 0.00
		CHANNELS 3 Zrotation Xrotation Yrotation
		JOINT Spine1
		{
			OFFSET	 0.00	 2.45913012437421	 0.00
			CHANNELS 3 Zrotation Xrotation Yrotation
            JOINT Neck
            {
                OFFSET	 0.00	 2.48462964506057	 0.00
                CHANNELS 3 Zrotation Xrotation Yrotation
                JOINT Head
                {
                    OFFSET	 0.00	 0.927524780924562	 0.00
                    CHANNELS 3 Zrotation Xrotation Yrotation
                    End Site 
                    {
                        OFFSET	 0.00	 1.14999962169752	 0.00
                    }
                }
            }
			JOINT LeftShoulder
			{
				OFFSET	 0.00	 2.48462964506057	 0.00
				CHANNELS 3 Zrotation Xrotation Yrotation
				JOINT LeftUpArm
				{
					OFFSET	 0.00	 1.24881979654096	 0.00
					CHANNELS 3 Zrotation Xrotation Yrotation
					JOINT LeftForeArm
					{
						OFFSET	 0.00	2.59758046908119	 0.00
						CHANNELS 3 Zrotation Xrotation Yrotation
						JOINT LeftHand
						{
							OFFSET	 0.00	2.45542024364365	 0.00
							CHANNELS 3 Zrotation Xrotation Yrotation
							JOINT LeftHandThumb 
							{
								OFFSET	 0.00	0.00	 0.00
								CHANNELS 3 Zrotation Xrotation Yrotation
								End Site
								{
									OFFSET	 0.00	0.00	1.00000003353624
								}
							}
							JOINT L_Wrist_End 
							{
								OFFSET	 0.00	0.99999967115358	 0.00
								CHANNELS 3 Zrotation Xrotation Yrotation
								End Site 
								{
									OFFSET	 0.00	 0.00	 0.00
								}
							}
						}
					}
				}
			}
			JOINT RightShoulder
			{
				OFFSET	 0.00	 2.48462964506057	 0.00
				CHANNELS 3 Zrotation Xrotation Yrotation
				JOINT RightUpArm
				{
					OFFSET	 0.00	 1.24881979654096	 0.00
					CHANNELS 3 Zrotation Xrotation Yrotation
					JOINT RightForeArm
					{
						OFFSET	 0.00	2.59758046908119	 0.00
						CHANNELS 3 Zrotation Xrotation Yrotation
						JOINT RightHand
						{
							OFFSET	 0.00	2.45542024364365	 0.00
							CHANNELS 3 Zrotation Xrotation Yrotation
							JOINT RightHandThumb 
							{
								OFFSET	 0.00	0.00	 0.00
								CHANNELS 3 Zrotation Xrotation Yrotation
								End Site
								{
									OFFSET	 0.00	0.00	1.00000003353624
								}
							}
							JOINT R_Wrist_End 
							{
								OFFSET	 0.00	0.99999967115358	 0.00
								CHANNELS 3 Zrotation Xrotation Yrotation
								End Site 
								{
									OFFSET	 0.00	 0.00	 0.00
								}
							}
						}
					}
				}
			}
		}
	}
	JOINT LeftUpLeg
	{
		OFFSET	 1.2719394002717	 0.00	 0.00
		CHANNELS 3 Zrotation Xrotation Yrotation
		JOINT LeftLowLeg
		{
			OFFSET	 0.00	-4.3429100912261	 0.00
			CHANNELS 3 Zrotation Xrotation Yrotation
			JOINT LeftFoot
			{
				OFFSET	 0.00	-4.48767017425826	 0.00
				CHANNELS 3 Zrotation Xrotation Yrotation
				JOINT LeftToeBase
                {
                    OFFSET	 0.00	0.00	 1.51507020887566
                    CHANNELS 3 Zrotation Xrotation Yrotation
                    End Site 
                    {
                        OFFSET	 0.00	0.00	 0.75000010571191
                    }
                }
			}
		}
	}
	JOINT RightUpLeg
	{
		OFFSET	 -1.2719393604653	 0.00	 0.00
		CHANNELS 3 Zrotation Xrotation Yrotation
		JOINT RightLowLeg
		{
			OFFSET	 0.00	-4.3429100912261	 0.00
			CHANNELS 3 Zrotation Xrotation Yrotation
			JOINT RightFoot
			{
				OFFSET	 0.00	-4.48767017425826	 0.00
				CHANNELS 3 Zrotation Xrotation Yrotation
				JOINT RightToeBase
                {
                    OFFSET	 0.00	0.00	 1.51507020887566
                    CHANNELS 3 Zrotation Xrotation Yrotation
                    End Site 
                    {
                        OFFSET	 0.00	0.00	 0.749999965609858
                    }
                }   
			}
		}
	}
}
MOTION 
Frames:	15 
Frame Time: 0.02 
 1.1698400115966796 4.912369995117188 9.367000122070312 -154.942 81.2978 1594.16 2.61617 -6.02956 0.116254 2.9727 -9.10046 0.337641 -4.46025 71.4561 358.833 63.3629 -81.3074 -308.468 -114.4699 -13.1984 -9.60907 11.4239 8.86438 -24.924 0.0 6.15709 0.0 29.6942 -7.41195 26.3353 0.0 0.0 0.0 0.0 0.0 0.0 110.677795 -10.9558 6.66144 -6.32163 -3.96331 50.5014 0.0 17.763 0.0 -30.1281 -13.9746 -44.4238 0.0 0.0 0.0 0.0 0.0 0.0 4.46147 -5.94136 -0.911451 0.0 5.30465 0.0 -15.2984 0.8025999 12.2008 0.0 -29.6386 0.0 5.69902 -5.09514 -2.244 0.0 8.07721 0.0 13.0158 4.6119003 -20.2455 0.0 -32.9277 0.0 
  1.1698600006103517 4.912059936523438 9.367249755859374 -154.896 81.3543 1594.07 2.58951 -5.99739 0.140858 2.98205 -9.08858 0.366719 -4.50018 71.5447 358.867 63.2283 -81.3089 -308.542 -114.4154 -13.2017 -9.59111 11.3118 8.76817 -24.9385 0.0 6.30143 0.0 29.591 -7.51243 26.2892 0.0 0.0 0.0 0.0 0.0 0.0 110.6728 -10.9511 6.65721 -6.31467 -3.98003 50.4855 0.0 17.7401 0.0 -30.157 -14.011 -44.5188 0.0 0.0 0.0 0.0 0.0 0.0 4.44368 -5.86243 -0.901004 0.0 5.27508 0.0 -15.3319 0.816 12.2409 0.0 -29.6717 0.0 5.68075 -5.03929 -2.20724 0.0 8.06759 0.0 13.007 4.6272 -20.2264 0.0 -32.967598 0.0 
  1.1695899963378906 4.913450012207031 9.36718017578125 -154.776 81.3677 1593.98 2.57926 -5.96578 0.131643 2.98878 -9.11073 0.359396 -4.47961 71.5977 358.83 62.8512 -81.2932 -308.844 -114.4204 -13.2172 -9.6064 11.287 8.77459 -24.9642 0.0 6.30019 0.0 29.59 -7.46494 26.3324 0.0 0.0 0.0 0.0 0.0 0.0 110.656204 -10.9407 6.65767 -6.28407 -3.99627 50.5501 0.0 17.7378 0.0 -30.1282 -14.0368 -44.4305 0.0 0.0 0.0 0.0 0.0 0.0 4.45552 -5.86195 -0.907173 0.0 5.28681 0.0 -15.3169 0.8181 12.2118 0.0 -29.6632 0.0 5.69011 -5.02939 -2.23466 0.0 8.07219 0.0 13.0058 4.6280003 -20.2214 0.0 -32.9435 0.0 
  1.1696199798583984 4.9133999633789065 9.367219848632812 -154.807 81.3718 1593.98 2.57254 -5.97788 0.144948 2.9882 -9.10245 0.373957 -4.55518 71.6442 358.916 62.9372 -81.3031 -308.772 -114.4345 -13.2357 -9.59686 11.2971 8.79657 -24.9819 0.0 6.27438 0.0 29.6209 -7.43334 26.3715 0.0 0.0 0.0 0.0 0.0 0.0 110.6262 -10.924 6.70431 -6.23539 -4.0005 50.5364 0.0 17.7633 0.0 -30.1324 -14.1164 -44.4451 0.0 0.0 0.0 0.0 0.0 0.0 4.45324 -5.84341 -0.859875 0.0 5.26789 0.0 -15.3095 0.82699966 12.2 0.0 -29.635399 0.0 5.68725 -5.02742 -2.1872 0.0 8.07087 0.0 13.0131 4.6256 -20.2276 0.0 -32.9614 0.0 
  1.1693900299072266 4.914150085449219 9.367310180664063 -154.733 81.4001 1593.9 2.56229 -5.95942 0.164667 2.98025 -9.12521 0.396915 -4.56626 71.7463 358.916 62.6125 -81.2906 -309.088 -114.4637 -13.2001 -9.61947 11.3102 8.79975 -24.8338 0.0 6.24654 0.0 29.6271 -7.4094 26.3968 0.0 0.0 0.0 0.0 0.0 0.0 110.6138 -10.9276 6.67662 -6.1981 -4.02473 50.621 0.0 17.7653 0.0 -30.0827 -14.1008 -44.3084 0.0 0.0 0.0 0.0 0.0 0.0 4.45095 -5.81833 -0.888871 0.0 5.26775 0.0 -15.3223 0.8292999 12.2365 0.0 -29.676899 0.0 5.68546 -5.01059 -2.18205 0.0 8.08595 0.0 13.019 4.6256 -20.2303 0.0 -32.9795 0.0 
  1.1692400360107422 4.913909912109375 9.367310180664063 -154.612 81.4206 1593.8 2.56547 -5.96136 0.165669 2.96453 -9.11711 0.397443 -4.5577 71.8079 358.9 62.6446 -81.2932 -309.051 -114.3976 -13.1946 -9.61932 11.2002 8.71976 -24.7616 0.0 6.40451 0.0 29.5483 -7.43435 26.4024 0.0 0.0 0.0 0.0 0.0 0.0 110.5942 -10.9023 6.71282 -6.16127 -4.06203 50.5478 0.0 17.7733 0.0 -30.0792 -14.0779 -44.4602 0.0 0.0 0.0 0.0 0.0 0.0 4.45685 -5.79519 -0.899281 0.0 5.26965 0.0 -15.3226 0.82719994 12.2316 0.0 -29.6661 0.0 5.69088 -4.98431 -2.21932 0.0 8.08951 0.0 13.0128 4.6305 -20.2168 0.0 -33.0027 0.0 
  1.1688800048828125 4.913460083007813 9.367449951171874 -154.282 81.4935 1593.48 2.55651 -5.90965 0.16545 2.98167 -9.0976 0.397596 -4.56188 71.8431 358.89 62.5948 -81.3051 -309.077 -114.3992 -13.1994 -9.57971 11.1671 8.70269 -24.8079 0.0 6.44298 0.0 29.5519 -7.39616 26.315 0.0 0.0 0.0 0.0 0.0 0.0 110.584 -10.9101 6.74131 -6.1461 -4.04673 50.4918 0.0 17.8165 0.0 -30.1544 -14.1383 -44.4033 0.0 0.0 0.0 0.0 0.0 0.0 4.47065 -5.70743 -0.902687 0.0 5.27165 0.0 -15.3031 0.8263998 12.2144 0.0 -29.6605 0.0 5.70453 -4.89586 -2.22698 0.0 8.09205 0.0 13.0082 4.6365995 -20.2296 0.0 -32.965 0.0 
  1.1694499969482421 4.9152099609375 9.367239990234374 -154.635 81.4212 1593.81 2.55131 -5.9742 0.178311 2.97594 -9.12207 0.412713 -4.63886 71.8416 358.979 62.5471 -81.3084 -309.107 -114.4243 -13.2091 -9.59341 11.1729 8.74752 -24.832 0.0 6.37777 0.0 29.646 -7.35452 26.2191 0.0 0.0 0.0 0.0 0.0 0.0 110.5635 -10.8944 6.738 -6.12072 -4.05944 50.4806 0.0 17.8301 0.0 -30.111 -14.0993 -44.3546 0.0 0.0 0.0 0.0 0.0 0.0 4.45371 -5.81424 -0.891887 0.0 5.29563 0.0 -15.3103 0.8192997 12.2264 0.0 -29.6681 0.0 5.68782 -5.01781 -2.18726 0.0 8.13675 0.0 13.0213 4.6105003 -20.227 0.0 -32.947502 0.0 
  1.1696700286865234 4.9154901123046875 9.367269897460938 -154.476 81.4609 1593.68 2.5627 -5.96215 0.183318 2.93859 -9.09523 0.415826 -4.76835 71.864 359.147 62.874 -81.314 -308.803 -114.3637 -13.2026 -9.55722 11.0555 8.67303 -24.9295 0.0 6.61518 0.0 29.5134 -7.61859 25.9627 0.0 0.0 0.0 0.0 0.0 0.0 110.5409 -10.8886 6.67561 -6.04967 -4.09745 50.4904 0.0 17.8524 0.0 -30.0041 -14.0725 -44.1894 0.0 0.0 0.0 0.0 0.0 0.0 4.45431 -5.78776 -0.877808 0.0 5.31799 0.0 -15.3008 0.82199955 12.1939 0.0 -29.6609 0.0 5.68604 -4.98133 -2.22786 0.0 8.15302 0.0 13.0177 4.6115 -20.2159 0.0 -32.9459 0.0 
  1.1696600341796874 4.915769958496094 9.3672998046875 -154.45 81.4773 1593.66 2.5612 -5.95785 0.18539 2.91916 -9.09242 0.418426 -4.64732 71.8575 359.011 62.6873 -81.2871 -308.94 -114.3468 -13.1746 -9.54938 11.0196 8.62463 -25.0493 0.0 6.71748 0.0 29.5413 -7.75405 25.7714 0.0 0.0 0.0 0.0 0.0 0.0 110.5373 -10.8814 6.63181 -6.02798 -4.10831 50.4698 0.0 17.8402 0.0 -30.0193 -14.0865 -44.0856 0.0 0.0 0.0 0.0 0.0 0.0 4.44924 -5.78097 -0.8935 0.0 5.32944 0.0 -15.3286 0.82229996 12.204 0.0 -29.678001 0.0 5.68288 -4.97016 -2.21784 0.0 8.16016 0.0 13.0244 4.6022997 -20.2286 0.0 -32.9925 0.0 
  1.1697200012207032 4.916589965820313 9.367100219726563 -154.285 81.513 1593.52 2.57238 -5.94275 0.190604 2.87836 -9.06264 0.421763 -4.69234 71.8705 359.089 62.9915 -81.2745 -308.646 -114.2922 -13.1225 -9.57354 10.8734 8.51653 -25.5552 0.0 7.06565 0.0 29.5343 -8.02579 25.2222 0.0 0.0 0.0 0.0 0.0 0.0 110.5005 -10.8632 6.67743 -5.94674 -4.14091 50.29 0.0 17.8552 0.0 -30.0655 -14.2232 -43.9167 0.0 0.0 0.0 0.0 0.0 0.0 4.45348 -5.75755 -0.895321 0.0 5.34563 0.0 -15.305 0.8231001 12.1709 0.0 -29.661499 0.0 5.68603 -4.94547 -2.23585 0.0 8.18821 0.0 13.0293 4.5845003 -20.2353 0.0 -32.9458 0.0 
  1.1696499633789061 4.91718994140625 9.367080078125 -154.239 81.5297 1593.49 2.56837 -5.93152 0.195642 2.86347 -9.06261 0.427841 -4.61676 71.8705 359.01 62.8754 -81.2494 -308.71 -114.3341 -13.1036 -9.53441 10.8854 8.52175 -26.0476 0.0 7.17755 0.0 29.6563 -8.07145 24.8596 0.0 0.0 0.0 0.0 0.0 0.0 110.5096 -10.9198 6.64884 -5.9278 -4.04241 50.4289 0.0 17.8105 0.0 -30.0983 -14.1717 -44.0009 0.0 0.0 0.0 0.0 0.0 0.0 4.45257 -5.75054 -0.869505 0.0 5.3546 0.0 -15.3158 0.82750034 12.1386 0.0 -29.6611 0.0 5.68544 -4.93821 -2.22464 0.0 8.20183 0.0 13.0418 4.571 -20.2567 0.0 -32.951797 0.0 
  1.1693699645996094 4.917460021972656 9.36708984375 -154.17 81.5506 1593.44 2.56217 -5.92579 0.199346 2.83168 -9.06989 0.43339 -4.57013 71.9149 358.977 63.0597 -81.2241 -308.493 -114.274 -13.1062 -9.48002 10.7296 8.47911 -26.7131 0.0 7.6105 0.0 29.6905 -8.20551 24.7546 0.0 0.0 0.0 0.0 0.0 0.0 110.504105 -10.9067 6.60255 -5.86688 -4.06825 50.4712 0.0 17.7989 0.0 -30.1002 -14.1398 -43.8956 0.0 0.0 0.0 0.0 0.0 0.0 4.45162 -5.73864 -0.880448 0.0 5.36151 0.0 -15.3373 0.83479977 12.1292 0.0 -29.693901 0.0 5.68362 -4.90374 -2.26567 0.0 8.1771 0.0 13.033 4.5844 -20.2415 0.0 -32.9734 0.0 
  1.1691500091552733 4.918259887695313 9.366690063476563 -154.06 81.5684 1593.35 2.5977 -5.91287 0.226058 2.6951 -9.09746 0.458798 -4.24711 71.9613 358.672 63.3687 -81.1201 -308.076 -114.1758 -13.0816 -9.39579 10.539 8.30119 -26.4571 0.0 8.66865 0.0 29.742 -8.49352 24.6667 0.0 0.0 0.0 0.0 0.0 0.0 110.5063 -10.8945 6.5087 -5.72697 -4.08527 50.6021 0.0 17.7438 0.0 -29.9244 -14.0772 -44.0659 0.0 0.0 0.0 0.0 0.0 0.0 4.45889 -5.73148 -0.851388 0.0 5.3751 0.0 -15.3077 0.83180046 12.0847 0.0 -29.682499 0.0 5.69284 -4.90579 -2.23414 0.0 8.22138 0.0 13.0351 4.5502996 -20.28 0.0 -32.9306 0.0 
  1.1687699890136718 4.918680114746094 9.366389770507812 -153.993 81.5729 1593.29 2.61195 -5.91062 0.24764 2.61251 -9.12144 0.481114 -4.03415 71.9888 358.475 63.5194 -81.0428 -307.829 -114.078 -13.1135 -9.39516 10.3132 8.15945 -26.4414 0.0 9.7224 0.0 29.715 -8.38258 24.5813 0.0 0.0 0.0 0.0 0.0 0.0 110.5286 -10.8931 6.44118 -5.67031 -4.09433 50.6258 0.0 17.6278 0.0 -29.6024 -13.7225 -44.1895 0.0 0.0 0.0 0.0 0.0 0.0 4.46529 -5.73004 -0.907554 0.0 5.38353 0.0 -15.319 0.8042002 12.1258 0.0 -29.6834 0.0 5.70292 -4.89888 -2.22668 0.0 8.21925 0.0 13.0402 4.5408 -20.2935 0.0 -32.9533 0.0 
